<svg version="1.1" xmlns="http://www.w3.org/2000/svg" xmlns:xlink="http://www.w3.org/1999/xlink" width="800" height="600">
	<g fill="none" fill-rule="nonzero" stroke="#ffffff" stroke-width="3.33333" stroke-linecap="round" stroke-linejoin="miter" stroke-miterlimit="10" stroke-dasharray="" stroke-dashoffset="0" font-family="none" font-weight="none" font-size="none" text-anchor="none" style="mix-blend-mode: normal">
		<g id="Snowflake">
			<g>
				<line x1="500" y1="200" x2="500" y2="233.33333" />
				<polyline points="495.16822,210.74923 500,205.91744 504.83178,210.74923" />
				<polyline points="491.55252,220.89041 500,212.44293 508.44748,220.89041" />
				<polyline points="495.96473,227.01764 500,222.98236 504.03527,227.01764" />
			</g>
			<g>
				<line x1="500" y1="200" x2="471.13249" y2="216.66667" />
				<polyline points="488.27501,201.19016 494.87535,202.95872 493.10679,209.55906" />
				<polyline points="477.68463,203.12947 489.22411,206.22146 486.13212,217.76094" />
				<polyline points="474.5844,210.01417 480.09669,211.49118 478.61968,217.00347" />
			</g>
			<g>
				<line x1="500" y1="200" x2="471.13249" y2="183.33333" />
				<polyline points="493.10679,190.44094 494.87535,197.04128 488.27501,198.80984" />
				<polyline points="486.13212,182.23906 489.22411,193.77854 477.68463,196.87053" />
				<polyline points="478.61968,182.99653 480.09669,188.50882 474.5844,189.98583" />
			</g>
			<g>
				<line x1="500" y1="200" x2="500" y2="166.66667" />
				<polyline points="504.83178,189.25077 500,194.08256 495.16822,189.25077" />
				<polyline points="508.44748,179.10959 500,187.55707 491.55252,179.10959" />
				<polyline points="504.03527,172.98236 500,177.01764 495.96473,172.98236" />
			</g>
			<g>
				<line x1="500" y1="200" x2="528.86751" y2="183.33333" />
				<polyline points="511.72499,198.80984 505.12465,197.04128 506.89321,190.44094" />
				<polyline points="522.31537,196.87053 510.77589,193.77854 513.86788,182.23906" />
				<polyline points="525.4156,189.98583 519.90331,188.50882 521.38032,182.99653" />
			</g>
			<g>
				<line x1="500" y1="200" x2="528.86751" y2="216.66667" />
				<polyline points="506.89321,209.55906 505.12465,202.95872 511.72499,201.19016" />
				<polyline points="513.86788,217.76094 510.77589,206.22146 522.31537,203.12947" />
				<polyline points="521.38032,217.00347 519.90331,211.49118 525.4156,210.01417" />
			</g>
		</g>
	</g>
</svg>
